<svg xmlns="http://www.w3.org/2000/svg" width="1600" height="800" viewBox="0 0 1600 800"><rect width="100%" height="100%" fill="#000080"/><path fill="#FFD700" d="M374.005 364.88h-34.35v22.9h29v11.5h-29v31.51h-14.44v-77.36h48.79zm38.68 51.73v-9.25q-5.72.26-9.63.99-3.9.72-6.26 1.84-2.35 1.13-3.37 2.62-1.02 1.5-1.02 3.27 0 3.48 2.06 4.97 2.06 1.5 5.38 1.5 4.07 0 7.04-1.47t5.8-4.47m-27.93-28.83-2.35-4.23q9.47-8.67 22.79-8.67 4.82 0 8.61 1.58 3.8 1.58 6.42 4.39 2.63 2.81 3.99 6.71 1.36 3.91 1.36 8.56v34.67h-5.99q-1.87 0-2.89-.56-1.01-.56-1.6-2.28l-1.18-3.95q-2.08 1.87-4.06 3.29-1.98 1.41-4.12 2.38-2.14.96-4.58 1.47-2.43.51-5.37.51-3.48 0-6.42-.94-2.95-.94-5.09-2.81t-3.31-4.65q-1.18-2.79-1.18-6.48 0-2.08.69-4.14.7-2.06 2.28-3.94 1.58-1.87 4.09-3.53 2.52-1.66 6.18-2.89t8.53-2q4.87-.78 11.13-.94v-3.21q0-5.51-2.35-8.16-2.36-2.65-6.8-2.65-3.21 0-5.32.75t-3.72 1.69q-1.6.94-2.91 1.68-1.32.75-2.92.75-1.39 0-2.35-.72-.97-.72-1.56-1.68m64.9-8.56.8 6.2q2.57-4.92 6.1-7.73t8.35-2.81q3.8 0 6.1 1.66l-.86 9.9q-.27.96-.78 1.36-.5.4-1.36.4-.8 0-2.38-.26-1.58-.27-3.08-.27-2.19 0-3.9.64t-3.08 1.85q-1.36 1.2-2.41 2.91-1.04 1.71-1.95 3.91v33.81h-13.21V375.9h7.75q2.04 0 2.84.72t1.07 2.6m41.46 51.57h-13.21V375.9h8.08q2.56 0 3.37 2.41l.85 4.06q1.45-1.6 3.03-2.94 1.57-1.34 3.37-2.3 1.79-.96 3.85-1.53 2.06-.56 4.52-.56 5.19 0 8.53 2.81 3.35 2.81 5 7.46 1.29-2.72 3.21-4.68 1.93-1.95 4.23-3.18t4.9-1.82q2.59-.59 5.21-.59 4.55 0 8.08 1.39 3.53 1.4 5.94 4.07t3.66 6.53q1.26 3.85 1.26 8.82v34.94h-13.21v-34.94q0-5.24-2.3-7.89t-6.74-2.65q-2.04 0-3.78.7t-3.05 2.01-2.06 3.29q-.74 1.98-.74 4.54v34.94h-13.27v-34.94q0-5.51-2.22-8.02-2.22-2.52-6.5-2.52-2.89 0-5.38 1.42t-4.63 3.88zm118.88-11.88h30.92v11.88h-45.31v-77.36h14.39zm68.1-2.3v-9.25q-5.72.26-9.63.99-3.9.72-6.25 1.84-2.36 1.13-3.38 2.62-1.01 1.5-1.01 3.27 0 3.48 2.06 4.97 2.06 1.5 5.37 1.5 4.07 0 7.04-1.47t5.8-4.47m-27.92-28.83-2.36-4.23q9.47-8.67 22.79-8.67 4.82 0 8.62 1.58t6.42 4.39 3.98 6.71q1.37 3.91 1.37 8.56v34.67h-5.99q-1.88 0-2.89-.56-1.02-.56-1.61-2.28l-1.17-3.95q-2.09 1.87-4.07 3.29-1.98 1.41-4.12 2.38-2.14.96-4.57 1.47-2.44.51-5.38.51-3.48 0-6.42-.94t-5.08-2.81-3.32-4.65q-1.18-2.79-1.18-6.48 0-2.08.7-4.14.69-2.06 2.27-3.94 1.58-1.87 4.09-3.53 2.52-1.66 6.18-2.89 3.67-1.23 8.54-2 4.87-.78 11.12-.94v-3.21q0-5.51-2.35-8.16t-6.79-2.65q-3.21 0-5.33.75-2.11.75-3.72 1.69-1.6.94-2.91 1.68-1.31.75-2.92.75-1.39 0-2.35-.72t-1.55-1.68m66.44 4.17v24.61q2.25 2.73 4.9 3.85t5.59 1.12q3.05 0 5.48-1.09 2.44-1.1 4.15-3.43 1.71-2.32 2.62-5.93.91-3.62.91-8.65 0-9.04-2.99-13.08-3-4.04-8.62-4.04-3.8 0-6.63 1.74-2.84 1.74-5.41 4.9m0-40.66v31.35q3.32-3.48 7.36-5.54t9.23-2.06q4.76 0 8.59 1.88 3.82 1.87 6.52 5.37 2.71 3.51 4.15 8.48 1.44 4.98 1.44 11.18 0 6.69-1.65 12.15-1.66 5.46-4.74 9.33-3.08 3.88-7.41 6.02t-9.63 2.14q-2.57 0-4.65-.51-2.09-.5-3.86-1.41-1.76-.91-3.23-2.22t-2.81-2.92l-.59 3.69q-.32 1.39-1.1 1.98-.77.59-2.11.59h-8.72v-79.5zm71.8 23.75q6.1 0 11.1 1.98 5.01 1.98 8.56 5.62 3.56 3.64 5.49 8.88 1.92 5.24 1.92 11.72 0 6.52-1.92 11.77-1.93 5.24-5.49 8.93-3.55 3.69-8.56 5.67-5 1.98-11.1 1.98-6.15 0-11.18-1.98t-8.59-5.67q-3.55-3.69-5.51-8.93-1.95-5.25-1.95-11.77 0-6.48 1.95-11.72 1.96-5.24 5.51-8.88 3.56-3.64 8.59-5.62t11.18-1.98m0 46.39q6.85 0 10.14-4.6t3.29-13.49q0-8.88-3.29-13.53-3.29-4.66-10.14-4.66-6.95 0-10.3 4.69-3.34 4.68-3.34 13.5 0 8.83 3.34 13.46 3.35 4.63 10.3 4.63m48.85-42.21.8 6.2q2.57-4.92 6.1-7.73t8.34-2.81q3.8 0 6.1 1.66l-.85 9.9q-.27.96-.78 1.36t-1.36.4q-.8 0-2.38-.26-1.58-.27-3.08-.27-2.19 0-3.9.64-1.72.64-3.08 1.85-1.37 1.2-2.41 2.91t-1.95 3.91v33.81h-13.22V375.9h7.76q2.03 0 2.84.72.8.72 1.07 2.6m72.6 22.36h24.61l-9.42-25.73q-.69-1.72-1.44-4.07t-1.5-5.08q-.7 2.73-1.45 5.11t-1.44 4.14zm19.63-48.15 30.39 77.36h-11.13q-1.87 0-3.05-.94-1.18-.93-1.76-2.32l-5.78-15.79h-32.05l-5.78 15.79q-.42 1.23-1.65 2.24-1.24 1.02-3.05 1.02h-11.24l30.44-77.36zm47.78 24.88.91 4.33q1.65-1.66 3.5-3.08 1.85-1.41 3.91-2.4t4.41-1.56q2.35-.56 5.14-.56 4.49 0 7.97 1.53 3.47 1.52 5.8 4.28 2.33 2.75 3.53 6.58 1.21 3.82 1.21 8.42v34.94h-13.22v-34.94q0-5.02-2.3-7.78t-7.01-2.76q-3.42 0-6.42 1.56-2.99 1.55-5.67 4.22v39.7h-13.21V375.9h8.08q2.56 0 3.37 2.41m77.89 38.3v-9.25q-5.72.26-9.63.99-3.9.72-6.26 1.84-2.35 1.13-3.37 2.62-1.01 1.5-1.01 3.27 0 3.48 2.06 4.97 2.06 1.5 5.37 1.5 4.07 0 7.04-1.47t5.8-4.47m-27.92-28.83-2.36-4.23q9.47-8.67 22.79-8.67 4.82 0 8.62 1.58 3.79 1.58 6.42 4.39 2.62 2.81 3.98 6.71 1.37 3.91 1.37 8.56v34.67h-6q-1.87 0-2.88-.56-1.02-.56-1.61-2.28l-1.18-3.95q-2.08 1.87-4.06 3.29-1.98 1.41-4.12 2.38-2.14.96-4.58 1.47-2.43.51-5.37.51-3.48 0-6.42-.94-2.95-.94-5.09-2.81t-3.31-4.65q-1.18-2.79-1.18-6.48 0-2.08.7-4.14.69-2.06 2.27-3.94 1.58-1.87 4.09-3.53 2.52-1.66 6.18-2.89 3.67-1.23 8.53-2 4.87-.78 11.13-.94v-3.21q0-5.51-2.35-8.16-2.36-2.65-6.8-2.65-3.21 0-5.32.75t-3.72 1.69q-1.6.94-2.91 1.68-1.31.75-2.92.75-1.39 0-2.35-.72-.97-.72-1.55-1.68m53.39-36.49h13.21v79.5h-13.21zm65.7 24.61h10.59l-29.91 69.98q-.59 1.39-1.52 2.11-.94.72-2.86.72h-9.85l10.27-22.04-22.2-50.77h11.61q1.55 0 2.44.75.88.75 1.31 1.71l11.66 28.46q.59 1.45.99 2.89.4 1.45.77 2.94.49-1.49.97-2.97.48-1.47 1.07-2.91l11.02-28.41q.43-1.07 1.42-1.77.99-.69 2.22-.69m53.66 5.94-3 4.76q-.53.85-1.12 1.2t-1.5.35q-.96 0-2.06-.53-1.1-.54-2.54-1.21-1.45-.67-3.29-1.2-1.85-.54-4.36-.54-3.91 0-6.13 1.66t-2.22 4.33q0 1.77 1.15 2.97 1.15 1.21 3.05 2.12t4.31 1.63 4.89 1.58q2.49.85 4.9 1.95t4.31 2.78q1.9 1.69 3.05 4.04 1.15 2.36 1.15 5.67 0 3.96-1.42 7.31-1.42 3.34-4.2 5.77-2.78 2.44-6.88 3.8-4.09 1.37-9.44 1.37-2.83 0-5.54-.51-2.7-.51-5.19-1.42-2.48-.91-4.6-2.14-2.11-1.23-3.72-2.67l3.05-5.03q.59-.91 1.4-1.39.8-.49 2.03-.49t2.33.7q1.09.69 2.54 1.5 1.44.8 3.39 1.49 1.96.7 4.95.7 2.36 0 4.04-.56 1.69-.56 2.78-1.47 1.1-.91 1.61-2.12.51-1.2.51-2.48 0-1.93-1.15-3.16t-3.05-2.14-4.34-1.63q-2.43-.72-4.97-1.58t-4.98-2.01q-2.43-1.15-4.33-2.91-1.9-1.77-3.05-4.34-1.15-2.56-1.15-6.2 0-3.37 1.34-6.42 1.33-3.05 3.93-5.32 2.59-2.28 6.47-3.64 3.88-1.37 8.96-1.37 5.68 0 10.33 1.88 4.65 1.87 7.76 4.92m10.96-5.94h13.27v54.89h-13.27zm15.09-16q0 1.71-.69 3.21-.7 1.5-1.85 2.62-1.15 1.13-2.7 1.8t-3.32.67q-1.71 0-3.23-.67-1.53-.67-2.65-1.8-1.13-1.12-1.8-2.62-.66-1.5-.66-3.21 0-1.76.66-3.31.67-1.56 1.8-2.68 1.12-1.12 2.65-1.79 1.52-.67 3.23-.67 1.77 0 3.32.67t2.7 1.79 1.85 2.68q.69 1.55.69 3.31m48.15 21.94-2.99 4.76q-.54.85-1.13 1.2t-1.5.35q-.96 0-2.06-.53-1.09-.54-2.54-1.21-1.44-.67-3.29-1.2-1.84-.54-4.36-.54-3.9 0-6.12 1.66t-2.22 4.33q0 1.77 1.15 2.97 1.15 1.21 3.05 2.12t4.3 1.63q2.41.72 4.9 1.58 2.49.85 4.89 1.95 2.41 1.1 4.31 2.78 1.9 1.69 3.05 4.04 1.15 2.36 1.15 5.67 0 3.96-1.42 7.31-1.42 3.34-4.2 5.77-2.78 2.44-6.87 3.8-4.09 1.37-9.44 1.37-2.84 0-5.54-.51t-5.19-1.42-4.6-2.14q-2.12-1.23-3.72-2.67l3.05-5.03q.59-.91 1.39-1.39.8-.49 2.03-.49t2.33.7q1.1.69 2.54 1.5 1.45.8 3.4 1.49 1.95.7 4.95.7 2.35 0 4.04-.56 1.68-.56 2.78-1.47t1.6-2.12q.51-1.2.51-2.48 0-1.93-1.15-3.16t-3.05-2.14-4.33-1.63q-2.44-.72-4.98-1.58t-4.97-2.01q-2.44-1.15-4.34-2.91-1.9-1.77-3.05-4.34-1.15-2.56-1.15-6.2 0-3.37 1.34-6.42t3.93-5.32q2.6-2.28 6.48-3.64 3.88-1.37 8.96-1.37 5.67 0 10.32 1.88 4.66 1.87 7.76 4.92"/></svg>