<svg xmlns="http://www.w3.org/2000/svg" width="1600" height="800" viewBox="0 0 1600 800"><rect width="100%" height="100%" fill="#000080"/><path fill="#FFD700" d="M382.125 393.07q0 7.47-2.49 13.72t-7 10.77q-4.51 4.51-10.86 7-6.34 2.49-14.1 2.49h-25.9v-67.96h25.9q7.76 0 14.1 2.51 6.35 2.52 10.86 7.01 4.51 4.48 7 10.74 2.49 6.25 2.49 13.72m-12.97 0q0-5.59-1.48-10.04-1.48-4.44-4.28-7.52-2.79-3.07-6.77-4.72-3.97-1.64-8.95-1.64h-13.21v47.84h13.21q4.98 0 8.95-1.64 3.98-1.65 6.77-4.73 2.8-3.07 4.28-7.52 1.48-4.44 1.48-10.03m47.75 21.52v-8.13q-5.03.24-8.46.87-3.43.64-5.5 1.63-2.06.98-2.96 2.3-.89 1.31-.89 2.86 0 3.06 1.81 4.38 1.81 1.31 4.72 1.31 3.57 0 6.18-1.29t5.1-3.93m-24.53-25.33-2.07-3.71q8.32-7.62 20.02-7.62 4.23 0 7.57 1.39t5.64 3.86q2.3 2.46 3.5 5.89t1.2 7.52v30.46h-5.26q-1.65 0-2.54-.49-.9-.5-1.41-2l-1.04-3.48q-1.83 1.65-3.57 2.89-1.74 1.25-3.62 2.09-1.88.85-4.02 1.3-2.13.44-4.72.44-3.05 0-5.64-.82-2.58-.82-4.46-2.47-1.88-1.64-2.92-4.09-1.03-2.44-1.03-5.68 0-1.84.61-3.65t2-3.45q1.38-1.65 3.59-3.1 2.21-1.46 5.43-2.54t7.5-1.76q4.27-.69 9.77-.83v-2.82q0-4.84-2.07-7.16-2.06-2.33-5.96-2.33-2.82 0-4.68.66t-3.27 1.48-2.56 1.48-2.56.66q-1.22 0-2.07-.64-.84-.63-1.36-1.48m47.14-10.43h11.66v48.22h-11.66zm13.25-14.05q0 1.5-.61 2.82-.61 1.31-1.62 2.3t-2.37 1.57q-1.37.59-2.92.59-1.5 0-2.84-.59-1.34-.58-2.33-1.57-.98-.99-1.57-2.3-.59-1.32-.59-2.82 0-1.56.59-2.92t1.57-2.35q.99-.99 2.33-1.57 1.34-.59 2.84-.59 1.55 0 2.92.59 1.36.58 2.37 1.57t1.62 2.35.61 2.92m20.5 16.96.7 5.45q2.26-4.32 5.36-6.79t7.33-2.47q3.34 0 5.36 1.46l-.75 8.7q-.24.84-.69 1.2-.44.35-1.19.35-.71 0-2.1-.24-1.38-.23-2.7-.23-1.92 0-3.43.56-1.5.57-2.7 1.62-1.2 1.06-2.12 2.57-.91 1.5-1.71 3.43v29.7h-11.61v-48.22h6.81q1.79 0 2.5.63.7.64.94 2.28m59.31-2.91h9.31l-26.28 61.47q-.51 1.23-1.34 1.86-.82.63-2.51.63h-8.65l9.02-19.36-19.5-44.6h10.2q1.36 0 2.14.66.77.65 1.15 1.5l10.24 25q.52 1.27.87 2.54.36 1.27.69 2.59.42-1.32.84-2.61t.94-2.56l9.68-24.96q.38-.94 1.25-1.55t1.95-.61m52.45-19.74v67.96h-12.69v-67.96zm23.41 21.85.8 3.81q1.45-1.46 3.07-2.7 1.63-1.25 3.44-2.12t3.87-1.36q2.07-.49 4.52-.49 3.94 0 7 1.34 3.05 1.33 5.1 3.76 2.04 2.42 3.1 5.78t1.06 7.4v30.69h-11.61v-30.69q0-4.42-2.02-6.84t-6.16-2.42q-3.01 0-5.64 1.36-2.63 1.37-4.98 3.72v34.87h-11.61v-48.22h7.1q2.25 0 2.96 2.11m73.22 31.82v-21.62q-1.97-2.39-4.3-3.38-2.32-.99-5-.99-2.63 0-4.75.99-2.11.99-3.62 2.98-1.5 2-2.3 5.08t-.8 7.26q0 4.23.68 7.17.68 2.93 1.95 4.79t3.1 2.68q1.84.82 4.09.82 3.62 0 6.16-1.5 2.54-1.51 4.79-4.28m0-55.55h11.61v69.84h-7.09q-2.31 0-2.92-2.12l-.99-4.65q-2.91 3.34-6.69 5.41-3.79 2.06-8.82 2.06-3.94 0-7.23-1.64t-5.67-4.77q-2.37-3.13-3.66-7.73-1.3-4.61-1.3-10.53 0-5.36 1.46-9.96 1.46-4.61 4.18-7.99 2.73-3.39 6.54-5.29 3.8-1.91 8.55-1.91 4.04 0 6.91 1.27t5.12 3.44zm53.02 21.62h11.61v48.22h-7.1q-2.3 0-2.91-2.12l-.8-3.85q-2.96 3.01-6.53 4.87-3.58 1.85-8.42 1.85-3.95 0-6.98-1.34t-5.1-3.78q-2.06-2.45-3.12-5.81t-1.06-7.4v-30.64h11.61v30.64q0 4.42 2.04 6.84 2.05 2.42 6.14 2.42 3.01 0 5.64-1.34t4.98-3.69zm55.13 5.21-2.63 4.19q-.47.75-.99 1.06-.52.3-1.31.3-.85 0-1.81-.47-.97-.47-2.24-1.06-1.27-.58-2.89-1.05t-3.83-.47q-3.43 0-5.38 1.45-1.95 1.46-1.95 3.81 0 1.55 1.01 2.61t2.68 1.85q1.67.8 3.78 1.44 2.12.63 4.3 1.39 2.19.75 4.3 1.71 2.12.96 3.79 2.44 1.67 1.49 2.68 3.55 1.01 2.07 1.01 4.98 0 3.48-1.25 6.42-1.24 2.94-3.69 5.08-2.44 2.13-6.04 3.33-3.59 1.2-8.29 1.2-2.49 0-4.87-.44-2.37-.45-4.56-1.25-2.18-.8-4.04-1.88-1.85-1.08-3.26-2.35l2.67-4.42q.52-.8 1.23-1.22.7-.42 1.78-.42t2.05.61q.96.61 2.23 1.31 1.27.71 2.98 1.32 1.72.61 4.35.61 2.07 0 3.55-.49 1.48-.5 2.44-1.29.97-.8 1.41-1.86.45-1.06.45-2.19 0-1.69-1.01-2.77t-2.68-1.88-3.81-1.43q-2.13-.64-4.37-1.39-2.23-.75-4.37-1.76t-3.81-2.56q-1.66-1.55-2.67-3.81t-1.01-5.45q0-2.96 1.17-5.64 1.18-2.68 3.45-4.68 2.28-2 5.69-3.2 3.41-1.19 7.87-1.19 4.99 0 9.08 1.64 4.08 1.65 6.81 4.32m25.33 43.76q-6.29 0-9.66-3.55-3.36-3.54-3.36-9.8v-26.93h-4.93q-.94 0-1.6-.61t-.66-1.83v-4.61l7.76-1.27 2.44-13.16q.24-.94.9-1.45.65-.52 1.69-.52h6.01v15.18h12.88v8.27h-12.88v26.14q0 2.25 1.11 3.52 1.1 1.27 3.03 1.27 1.08 0 1.81-.26t1.27-.54.96-.54.85-.26q.51 0 .84.26t.71.78l3.48 5.64q-2.54 2.11-5.83 3.19t-6.82 1.08m29.14-46.06.71 5.45q2.25-4.32 5.36-6.79 3.1-2.47 7.33-2.47 3.34 0 5.36 1.46l-.76 8.7q-.23.84-.68 1.2-.44.35-1.2.35-.7 0-2.09-.24-1.38-.23-2.7-.23-1.93 0-3.43.56-1.5.57-2.7 1.62-1.2 1.06-2.12 2.57-.91 1.5-1.71 3.43v29.7h-11.61v-48.22h6.81q1.79 0 2.49.63.71.64.94 2.28m59.32-2.91h9.3l-26.27 61.47q-.52 1.23-1.34 1.86t-2.51.63h-8.65l9.02-19.36-19.5-44.6h10.2q1.36 0 2.13.66.78.65 1.16 1.5l10.24 25q.52 1.27.87 2.54t.68 2.59l.85-2.61q.42-1.29.94-2.56l9.68-24.96q.38-.94 1.25-1.55t1.95-.61m54.05 22.56h21.62l-8.27-22.61q-.62-1.5-1.27-3.57-.66-2.07-1.32-4.47-.61 2.4-1.27 4.49t-1.27 3.65zm17.25-42.3 26.69 67.96h-9.77q-1.65 0-2.68-.82-1.04-.83-1.55-2.05l-5.08-13.86h-28.15l-5.08 13.86q-.37 1.08-1.46 1.98-1.08.89-2.67.89h-9.87l26.74-67.96zm41.97 21.85.8 3.81q1.45-1.46 3.07-2.7 1.63-1.25 3.44-2.12t3.87-1.36q2.07-.49 4.52-.49 3.94 0 7 1.34 3.05 1.33 5.1 3.76 2.04 2.42 3.1 5.78t1.06 7.4v30.69h-11.61v-30.69q0-4.42-2.02-6.84t-6.16-2.42q-3.01 0-5.64 1.36-2.63 1.37-4.98 3.72v34.87h-11.61v-48.22h7.1q2.25 0 2.96 2.11m68.43 33.65v-8.13q-5.03.24-8.46.87-3.43.64-5.5 1.63-2.07.98-2.96 2.3-.89 1.31-.89 2.86 0 3.06 1.81 4.38 1.81 1.31 4.72 1.31 3.57 0 6.18-1.29t5.1-3.93m-24.53-25.33-2.07-3.71q8.32-7.62 20.02-7.62 4.23 0 7.57 1.39 3.33 1.39 5.64 3.86 2.3 2.46 3.5 5.89t1.2 7.52v30.46h-5.27q-1.64 0-2.54-.49-.89-.5-1.41-2l-1.03-3.48q-1.83 1.65-3.57 2.89-1.74 1.25-3.62 2.09-1.88.85-4.02 1.3-2.14.44-4.72.44-3.06 0-5.64-.82-2.59-.82-4.47-2.47-1.88-1.64-2.91-4.09-1.04-2.44-1.04-5.68 0-1.84.62-3.65.61-1.81 1.99-3.45 1.39-1.65 3.6-3.1 2.21-1.46 5.43-2.54t7.49-1.76q4.28-.69 9.78-.83v-2.82q0-4.84-2.07-7.16-2.07-2.33-5.97-2.33-2.82 0-4.67.66-1.86.66-3.27 1.48t-2.56 1.48-2.56.66q-1.23 0-2.07-.64-.85-.63-1.36-1.48m46.9-32.05h11.61v69.84h-11.61zm57.72 21.62h9.3l-26.27 61.47q-.52 1.23-1.34 1.86t-2.51.63h-8.65l9.02-19.36-19.5-44.6h10.2q1.36 0 2.13.66.78.65 1.16 1.5l10.24 25q.52 1.27.87 2.54t.68 2.59l.85-2.61q.42-1.29.94-2.56l9.68-24.96q.38-.94 1.25-1.55t1.95-.61m47.14 5.21-2.63 4.19q-.47.75-.99 1.06-.52.3-1.32.3-.84 0-1.81-.47-.96-.47-2.23-1.06-1.27-.58-2.89-1.05t-3.83-.47q-3.43 0-5.38 1.45-1.95 1.46-1.95 3.81 0 1.55 1.01 2.61t2.68 1.85q1.67.8 3.78 1.44 2.12.63 4.3 1.39 2.19.75 4.3 1.71 2.12.96 3.79 2.44 1.66 1.49 2.67 3.55 1.02 2.07 1.02 4.98 0 3.48-1.25 6.42t-3.69 5.08q-2.44 2.13-6.04 3.33-3.59 1.2-8.29 1.2-2.5 0-4.87-.44-2.37-.45-4.56-1.25-2.18-.8-4.04-1.88t-3.27-2.35l2.68-4.42q.52-.8 1.22-1.22.71-.42 1.79-.42t2.04.61q.97.61 2.24 1.31 1.27.71 2.98 1.32 1.72.61 4.35.61 2.07 0 3.55-.49 1.48-.5 2.44-1.29.97-.8 1.41-1.86.45-1.06.45-2.19 0-1.69-1.01-2.77t-2.68-1.88-3.81-1.43q-2.14-.64-4.37-1.39t-4.37-1.76-3.81-2.56-2.68-3.81-1.01-5.45q0-2.96 1.18-5.64 1.17-2.68 3.45-4.68t5.69-3.2q3.41-1.19 7.87-1.19 4.98 0 9.07 1.64 4.09 1.65 6.82 4.32m9.63-5.21h11.66v48.22h-11.66zm13.26-14.05q0 1.5-.61 2.82-.61 1.31-1.63 2.3-1.01.99-2.37 1.57-1.36.59-2.91.59-1.51 0-2.85-.59-1.34-.58-2.32-1.57-.99-.99-1.58-2.3-.58-1.32-.58-2.82 0-1.56.58-2.92.59-1.36 1.58-2.35.98-.99 2.32-1.57 1.34-.59 2.85-.59 1.55 0 2.91.59 1.36.58 2.37 1.57 1.02.99 1.63 2.35t.61 2.92m42.3 19.26-2.63 4.19q-.47.75-.99 1.06-.52.3-1.32.3-.84 0-1.81-.47-.96-.47-2.23-1.06-1.27-.58-2.89-1.05t-3.83-.47q-3.43 0-5.38 1.45-1.95 1.46-1.95 3.81 0 1.55 1.01 2.61t2.68 1.85q1.67.8 3.78 1.44 2.12.63 4.3 1.39 2.19.75 4.3 1.71 2.12.96 3.78 2.44 1.67 1.49 2.68 3.55 1.01 2.07 1.01 4.98 0 3.48-1.24 6.42-1.25 2.94-3.69 5.08-2.44 2.13-6.04 3.33t-8.3 1.2q-2.49 0-4.86-.44-2.37-.45-4.56-1.25-2.18-.8-4.04-1.88t-3.27-2.35l2.68-4.42q.52-.8 1.22-1.22.71-.42 1.79-.42t2.04.61q.97.61 2.24 1.31 1.27.71 2.98 1.32 1.72.61 4.35.61 2.07 0 3.55-.49 1.48-.5 2.44-1.29.96-.8 1.41-1.86t.45-2.19q0-1.69-1.01-2.77t-2.68-1.88-3.81-1.43q-2.14-.64-4.37-1.39t-4.37-1.76-3.81-2.56-2.68-3.81-1.01-5.45q0-2.96 1.18-5.64 1.17-2.68 3.45-4.68t5.69-3.2q3.41-1.19 7.87-1.19 4.98 0 9.07 1.64 4.09 1.65 6.82 4.32"/></svg>